<mxfile host="app.diagrams.net" agent="Mozilla/5.0 (Windows NT 10.0; Win64; x64) AppleWebKit/537.36 (KHTML, like Gecko) Chrome/131.0.0.0 Safari/537.36" version="25.0.1">
  <diagram name="第 1 页" id="VJZ4Dg3zBNNsK1nEmvVD">
    <mxGraphModel dx="1077" dy="588" grid="1" gridSize="10" guides="1" tooltips="1" connect="1" arrows="1" fold="1" page="1" pageScale="1" pageWidth="1600" pageHeight="900" math="0" shadow="0">
      <root>
        <mxCell id="0" />
        <mxCell id="1" parent="0" />
        <mxCell id="onFosMeRc9ui8_qEqtBx-20" style="edgeStyle=orthogonalEdgeStyle;shape=connector;rounded=0;orthogonalLoop=1;jettySize=auto;html=1;exitX=0;exitY=0.5;exitDx=0;exitDy=0;exitPerimeter=0;strokeColor=default;align=center;verticalAlign=middle;fontFamily=Helvetica;fontSize=11;fontColor=default;labelBackgroundColor=default;endArrow=none;endFill=0;" edge="1" parent="1" source="onFosMeRc9ui8_qEqtBx-1">
          <mxGeometry relative="1" as="geometry">
            <mxPoint x="580" y="395" as="targetPoint" />
          </mxGeometry>
        </mxCell>
        <mxCell id="onFosMeRc9ui8_qEqtBx-1" value="" style="pointerEvents=1;verticalLabelPosition=bottom;shadow=0;dashed=0;align=center;html=1;verticalAlign=top;shape=mxgraph.electrical.resistors.resistor_2;" vertex="1" parent="1">
          <mxGeometry x="610" y="260" width="100" height="20" as="geometry" />
        </mxCell>
        <mxCell id="onFosMeRc9ui8_qEqtBx-21" style="edgeStyle=orthogonalEdgeStyle;shape=connector;rounded=0;orthogonalLoop=1;jettySize=auto;html=1;exitX=0;exitY=0.5;exitDx=0;exitDy=0;exitPerimeter=0;strokeColor=default;align=center;verticalAlign=middle;fontFamily=Helvetica;fontSize=11;fontColor=default;labelBackgroundColor=default;endArrow=none;endFill=0;" edge="1" parent="1" source="onFosMeRc9ui8_qEqtBx-2">
          <mxGeometry relative="1" as="geometry">
            <mxPoint x="440" y="394.95238095238096" as="targetPoint" />
          </mxGeometry>
        </mxCell>
        <mxCell id="onFosMeRc9ui8_qEqtBx-2" value="" style="pointerEvents=1;verticalLabelPosition=bottom;shadow=0;dashed=0;align=center;html=1;verticalAlign=top;shape=mxgraph.electrical.resistors.resistor_2;" vertex="1" parent="1">
          <mxGeometry x="465" y="385" width="90" height="20" as="geometry" />
        </mxCell>
        <mxCell id="onFosMeRc9ui8_qEqtBx-22" style="edgeStyle=orthogonalEdgeStyle;shape=connector;rounded=0;orthogonalLoop=1;jettySize=auto;html=1;exitX=0;exitY=0.5;exitDx=0;exitDy=0;exitPerimeter=0;strokeColor=default;align=center;verticalAlign=middle;fontFamily=Helvetica;fontSize=11;fontColor=default;labelBackgroundColor=default;endArrow=none;endFill=0;" edge="1" parent="1" source="onFosMeRc9ui8_qEqtBx-3">
          <mxGeometry relative="1" as="geometry">
            <mxPoint x="440" y="454.95238095238096" as="targetPoint" />
          </mxGeometry>
        </mxCell>
        <mxCell id="onFosMeRc9ui8_qEqtBx-3" value="" style="pointerEvents=1;verticalLabelPosition=bottom;shadow=0;dashed=0;align=center;html=1;verticalAlign=top;shape=mxgraph.electrical.resistors.resistor_2;" vertex="1" parent="1">
          <mxGeometry x="460" y="445" width="100" height="20" as="geometry" />
        </mxCell>
        <mxCell id="onFosMeRc9ui8_qEqtBx-19" style="edgeStyle=orthogonalEdgeStyle;shape=connector;rounded=0;orthogonalLoop=1;jettySize=auto;html=1;exitX=0;exitY=0.5;exitDx=0;exitDy=0;exitPerimeter=0;strokeColor=default;align=center;verticalAlign=middle;fontFamily=Helvetica;fontSize=11;fontColor=default;labelBackgroundColor=default;endArrow=none;endFill=0;" edge="1" parent="1" source="onFosMeRc9ui8_qEqtBx-4">
          <mxGeometry relative="1" as="geometry">
            <mxPoint x="580" y="455" as="targetPoint" />
          </mxGeometry>
        </mxCell>
        <mxCell id="onFosMeRc9ui8_qEqtBx-4" value="" style="pointerEvents=1;verticalLabelPosition=bottom;shadow=0;dashed=0;align=center;html=1;verticalAlign=top;shape=mxgraph.electrical.resistors.resistor_2;" vertex="1" parent="1">
          <mxGeometry x="610" y="560" width="100" height="20" as="geometry" />
        </mxCell>
        <mxCell id="onFosMeRc9ui8_qEqtBx-36" style="edgeStyle=orthogonalEdgeStyle;shape=connector;rounded=0;orthogonalLoop=1;jettySize=auto;html=1;exitX=0.4;exitY=0.094;exitDx=0;exitDy=0;exitPerimeter=0;strokeColor=default;align=center;verticalAlign=middle;fontFamily=Helvetica;fontSize=11;fontColor=default;labelBackgroundColor=default;endArrow=none;endFill=0;" edge="1" parent="1" source="onFosMeRc9ui8_qEqtBx-5">
          <mxGeometry relative="1" as="geometry">
            <mxPoint x="659.9591836734694" y="350" as="targetPoint" />
          </mxGeometry>
        </mxCell>
        <mxCell id="onFosMeRc9ui8_qEqtBx-5" value="" style="verticalLabelPosition=bottom;shadow=0;dashed=0;align=center;html=1;verticalAlign=top;shape=mxgraph.electrical.abstract.ota_2;" vertex="1" parent="1">
          <mxGeometry x="620" y="380" width="100" height="90" as="geometry" />
        </mxCell>
        <mxCell id="onFosMeRc9ui8_qEqtBx-10" style="edgeStyle=orthogonalEdgeStyle;shape=connector;rounded=0;orthogonalLoop=1;jettySize=auto;html=1;exitX=0;exitY=0.5;exitDx=0;exitDy=0;exitPerimeter=0;strokeColor=default;align=center;verticalAlign=middle;fontFamily=Helvetica;fontSize=11;fontColor=default;labelBackgroundColor=default;endArrow=none;endFill=0;" edge="1" parent="1" source="onFosMeRc9ui8_qEqtBx-6">
          <mxGeometry relative="1" as="geometry">
            <mxPoint x="730" y="365" as="targetPoint" />
          </mxGeometry>
        </mxCell>
        <mxCell id="onFosMeRc9ui8_qEqtBx-13" style="edgeStyle=orthogonalEdgeStyle;shape=connector;rounded=0;orthogonalLoop=1;jettySize=auto;html=1;exitX=1;exitY=0.5;exitDx=0;exitDy=0;exitPerimeter=0;strokeColor=default;align=center;verticalAlign=middle;fontFamily=Helvetica;fontSize=11;fontColor=default;labelBackgroundColor=default;endArrow=none;endFill=0;" edge="1" parent="1" source="onFosMeRc9ui8_qEqtBx-6">
          <mxGeometry relative="1" as="geometry">
            <mxPoint x="860" y="485" as="targetPoint" />
          </mxGeometry>
        </mxCell>
        <mxCell id="onFosMeRc9ui8_qEqtBx-6" value="" style="pointerEvents=1;verticalLabelPosition=bottom;shadow=0;dashed=0;align=center;html=1;verticalAlign=top;shape=mxgraph.electrical.capacitors.capacitor_1;" vertex="1" parent="1">
          <mxGeometry x="755" y="350" width="80" height="30" as="geometry" />
        </mxCell>
        <mxCell id="onFosMeRc9ui8_qEqtBx-11" style="edgeStyle=orthogonalEdgeStyle;shape=connector;rounded=0;orthogonalLoop=1;jettySize=auto;html=1;exitX=0;exitY=0.5;exitDx=0;exitDy=0;exitPerimeter=0;strokeColor=default;align=center;verticalAlign=middle;fontFamily=Helvetica;fontSize=11;fontColor=default;labelBackgroundColor=default;endArrow=none;endFill=0;" edge="1" parent="1" source="onFosMeRc9ui8_qEqtBx-7">
          <mxGeometry relative="1" as="geometry">
            <mxPoint x="730" y="485" as="targetPoint" />
          </mxGeometry>
        </mxCell>
        <mxCell id="onFosMeRc9ui8_qEqtBx-12" style="edgeStyle=orthogonalEdgeStyle;shape=connector;rounded=0;orthogonalLoop=1;jettySize=auto;html=1;exitX=1;exitY=0.5;exitDx=0;exitDy=0;exitPerimeter=0;strokeColor=default;align=center;verticalAlign=middle;fontFamily=Helvetica;fontSize=11;fontColor=default;labelBackgroundColor=default;endArrow=none;endFill=0;" edge="1" parent="1" source="onFosMeRc9ui8_qEqtBx-7">
          <mxGeometry relative="1" as="geometry">
            <mxPoint x="860" y="485" as="targetPoint" />
          </mxGeometry>
        </mxCell>
        <mxCell id="onFosMeRc9ui8_qEqtBx-7" value="" style="pointerEvents=1;verticalLabelPosition=bottom;shadow=0;dashed=0;align=center;html=1;verticalAlign=top;shape=mxgraph.electrical.capacitors.capacitor_1;" vertex="1" parent="1">
          <mxGeometry x="760" y="470" width="70" height="30" as="geometry" />
        </mxCell>
        <mxCell id="onFosMeRc9ui8_qEqtBx-15" style="edgeStyle=orthogonalEdgeStyle;shape=connector;rounded=0;orthogonalLoop=1;jettySize=auto;html=1;exitX=0.5;exitY=0;exitDx=0;exitDy=0;exitPerimeter=0;strokeColor=default;align=center;verticalAlign=middle;fontFamily=Helvetica;fontSize=11;fontColor=default;labelBackgroundColor=default;endArrow=none;endFill=0;" edge="1" parent="1" source="onFosMeRc9ui8_qEqtBx-14">
          <mxGeometry relative="1" as="geometry">
            <mxPoint x="860.0000000000002" y="427.1724137931035" as="targetPoint" />
          </mxGeometry>
        </mxCell>
        <mxCell id="onFosMeRc9ui8_qEqtBx-14" value="" style="pointerEvents=1;verticalLabelPosition=bottom;shadow=0;dashed=0;align=center;html=1;verticalAlign=top;shape=mxgraph.electrical.signal_sources.signal_ground;fontFamily=Helvetica;fontSize=11;fontColor=default;labelBackgroundColor=default;direction=north;" vertex="1" parent="1">
          <mxGeometry x="890" y="405" width="30" height="45" as="geometry" />
        </mxCell>
        <mxCell id="onFosMeRc9ui8_qEqtBx-17" style="edgeStyle=orthogonalEdgeStyle;shape=connector;rounded=0;orthogonalLoop=1;jettySize=auto;html=1;strokeColor=default;align=center;verticalAlign=middle;fontFamily=Helvetica;fontSize=11;fontColor=default;labelBackgroundColor=default;endArrow=none;endFill=0;" edge="1" parent="1">
          <mxGeometry relative="1" as="geometry">
            <mxPoint x="620" y="455" as="sourcePoint" />
            <mxPoint x="560" y="455" as="targetPoint" />
            <Array as="points">
              <mxPoint x="620" y="455" />
            </Array>
          </mxGeometry>
        </mxCell>
        <mxCell id="onFosMeRc9ui8_qEqtBx-18" style="edgeStyle=orthogonalEdgeStyle;shape=connector;rounded=0;orthogonalLoop=1;jettySize=auto;html=1;exitX=1;exitY=0.5;exitDx=0;exitDy=0;exitPerimeter=0;strokeColor=default;align=center;verticalAlign=middle;fontFamily=Helvetica;fontSize=11;fontColor=default;labelBackgroundColor=default;endArrow=none;endFill=0;" edge="1" parent="1" source="onFosMeRc9ui8_qEqtBx-2">
          <mxGeometry relative="1" as="geometry">
            <mxPoint x="620" y="395" as="targetPoint" />
          </mxGeometry>
        </mxCell>
        <mxCell id="onFosMeRc9ui8_qEqtBx-23" value="" style="ellipse;whiteSpace=wrap;html=1;aspect=fixed;fontFamily=Helvetica;fontSize=11;fontColor=default;labelBackgroundColor=default;fillColor=none;" vertex="1" parent="1">
          <mxGeometry x="700" y="438.5" width="10" height="10" as="geometry" />
        </mxCell>
        <mxCell id="onFosMeRc9ui8_qEqtBx-24" value="" style="ellipse;whiteSpace=wrap;html=1;aspect=fixed;fontFamily=Helvetica;fontSize=11;fontColor=default;labelBackgroundColor=default;fillColor=none;" vertex="1" parent="1">
          <mxGeometry x="430" y="390" width="10" height="10" as="geometry" />
        </mxCell>
        <mxCell id="onFosMeRc9ui8_qEqtBx-26" value="" style="ellipse;whiteSpace=wrap;html=1;aspect=fixed;fontFamily=Helvetica;fontSize=11;fontColor=default;labelBackgroundColor=default;fillColor=none;" vertex="1" parent="1">
          <mxGeometry x="700" y="401.5" width="10" height="10" as="geometry" />
        </mxCell>
        <mxCell id="onFosMeRc9ui8_qEqtBx-27" style="edgeStyle=orthogonalEdgeStyle;shape=connector;rounded=0;orthogonalLoop=1;jettySize=auto;html=1;exitX=1;exitY=0.5;exitDx=0;exitDy=0;entryX=1;entryY=0.5;entryDx=0;entryDy=0;entryPerimeter=0;strokeColor=default;align=center;verticalAlign=middle;fontFamily=Helvetica;fontSize=11;fontColor=default;labelBackgroundColor=default;endArrow=none;endFill=0;" edge="1" parent="1" source="onFosMeRc9ui8_qEqtBx-23" target="onFosMeRc9ui8_qEqtBx-4">
          <mxGeometry relative="1" as="geometry" />
        </mxCell>
        <mxCell id="onFosMeRc9ui8_qEqtBx-28" style="edgeStyle=orthogonalEdgeStyle;shape=connector;rounded=0;orthogonalLoop=1;jettySize=auto;html=1;exitDx=0;exitDy=0;entryX=1;entryY=0.5;entryDx=0;entryDy=0;entryPerimeter=0;strokeColor=default;align=center;verticalAlign=middle;fontFamily=Helvetica;fontSize=11;fontColor=default;labelBackgroundColor=default;endArrow=none;endFill=0;" edge="1" parent="1" source="onFosMeRc9ui8_qEqtBx-42" target="onFosMeRc9ui8_qEqtBx-1">
          <mxGeometry relative="1" as="geometry">
            <Array as="points">
              <mxPoint x="730" y="270" />
            </Array>
          </mxGeometry>
        </mxCell>
        <mxCell id="onFosMeRc9ui8_qEqtBx-29" value="" style="triangle;whiteSpace=wrap;html=1;fontFamily=Helvetica;fontSize=11;fontColor=default;labelBackgroundColor=default;strokeColor=none;" vertex="1" parent="1">
          <mxGeometry x="687" y="410" width="30" height="30" as="geometry" />
        </mxCell>
        <mxCell id="onFosMeRc9ui8_qEqtBx-30" value="" style="rounded=0;whiteSpace=wrap;html=1;fontFamily=Helvetica;fontSize=11;fontColor=default;labelBackgroundColor=default;strokeColor=none;" vertex="1" parent="1">
          <mxGeometry x="717" y="420" width="30" height="10" as="geometry" />
        </mxCell>
        <mxCell id="onFosMeRc9ui8_qEqtBx-32" value="" style="endArrow=none;html=1;rounded=0;strokeColor=default;align=center;verticalAlign=middle;fontFamily=Helvetica;fontSize=11;fontColor=default;labelBackgroundColor=default;exitX=0.39;exitY=0.818;exitDx=0;exitDy=0;exitPerimeter=0;" edge="1" parent="1" source="onFosMeRc9ui8_qEqtBx-5">
          <mxGeometry width="50" height="50" relative="1" as="geometry">
            <mxPoint x="667" y="475" as="sourcePoint" />
            <mxPoint x="717" y="425" as="targetPoint" />
          </mxGeometry>
        </mxCell>
        <mxCell id="onFosMeRc9ui8_qEqtBx-33" value="" style="endArrow=none;html=1;rounded=0;strokeColor=default;align=center;verticalAlign=middle;fontFamily=Helvetica;fontSize=11;fontColor=default;labelBackgroundColor=default;entryX=0;entryY=0.5;entryDx=0;entryDy=0;exitX=0.049;exitY=-0.003;exitDx=0;exitDy=0;exitPerimeter=0;" edge="1" parent="1" source="onFosMeRc9ui8_qEqtBx-5" target="onFosMeRc9ui8_qEqtBx-30">
          <mxGeometry width="50" height="50" relative="1" as="geometry">
            <mxPoint x="640" y="380" as="sourcePoint" />
            <mxPoint x="690" y="330" as="targetPoint" />
          </mxGeometry>
        </mxCell>
        <mxCell id="onFosMeRc9ui8_qEqtBx-34" value="" style="ellipse;whiteSpace=wrap;html=1;aspect=fixed;fontFamily=Helvetica;fontSize=11;fontColor=default;labelBackgroundColor=default;fillColor=none;" vertex="1" parent="1">
          <mxGeometry x="430" y="450" width="10" height="10" as="geometry" />
        </mxCell>
        <mxCell id="onFosMeRc9ui8_qEqtBx-35" value="" style="endArrow=none;html=1;rounded=0;strokeColor=default;align=center;verticalAlign=middle;fontFamily=Helvetica;fontSize=11;fontColor=default;labelBackgroundColor=default;edgeStyle=orthogonalEdgeStyle;" edge="1" parent="1">
          <mxGeometry width="50" height="50" relative="1" as="geometry">
            <mxPoint x="642.5" y="350" as="sourcePoint" />
            <mxPoint x="677.5" y="350" as="targetPoint" />
          </mxGeometry>
        </mxCell>
        <mxCell id="onFosMeRc9ui8_qEqtBx-37" value="" style="pointerEvents=1;verticalLabelPosition=bottom;shadow=0;dashed=0;align=center;html=1;verticalAlign=top;shape=mxgraph.electrical.signal_sources.signal_ground;fontFamily=Helvetica;fontSize=11;fontColor=default;labelBackgroundColor=default;direction=east;" vertex="1" parent="1">
          <mxGeometry x="637.5" y="500" width="45" height="30" as="geometry" />
        </mxCell>
        <mxCell id="onFosMeRc9ui8_qEqtBx-38" style="edgeStyle=orthogonalEdgeStyle;shape=connector;rounded=0;orthogonalLoop=1;jettySize=auto;html=1;exitX=0.4;exitY=0.821;exitDx=0;exitDy=0;exitPerimeter=0;entryX=0.5;entryY=0;entryDx=0;entryDy=0;entryPerimeter=0;strokeColor=default;align=center;verticalAlign=middle;fontFamily=Helvetica;fontSize=11;fontColor=default;labelBackgroundColor=default;endArrow=none;endFill=0;" edge="1" parent="1" source="onFosMeRc9ui8_qEqtBx-5" target="onFosMeRc9ui8_qEqtBx-37">
          <mxGeometry relative="1" as="geometry" />
        </mxCell>
        <mxCell id="onFosMeRc9ui8_qEqtBx-39" value="" style="shape=waypoint;sketch=0;fillStyle=solid;size=6;pointerEvents=1;points=[];fillColor=none;resizable=0;rotatable=0;perimeter=centerPerimeter;snapToPoint=1;fontFamily=Helvetica;fontSize=11;fontColor=default;labelBackgroundColor=default;" vertex="1" parent="1">
          <mxGeometry x="570" y="445" width="20" height="20" as="geometry" />
        </mxCell>
        <mxCell id="onFosMeRc9ui8_qEqtBx-41" value="" style="shape=waypoint;sketch=0;fillStyle=solid;size=6;pointerEvents=1;points=[];fillColor=none;resizable=0;rotatable=0;perimeter=centerPerimeter;snapToPoint=1;fontFamily=Helvetica;fontSize=11;fontColor=default;labelBackgroundColor=default;" vertex="1" parent="1">
          <mxGeometry x="570" y="385" width="20" height="20" as="geometry" />
        </mxCell>
        <mxCell id="onFosMeRc9ui8_qEqtBx-43" value="" style="edgeStyle=orthogonalEdgeStyle;shape=connector;rounded=0;orthogonalLoop=1;jettySize=auto;html=1;exitX=1;exitY=0.5;exitDx=0;exitDy=0;entryDx=0;entryDy=0;entryPerimeter=0;strokeColor=default;align=center;verticalAlign=middle;fontFamily=Helvetica;fontSize=11;fontColor=default;labelBackgroundColor=default;endArrow=none;endFill=0;" edge="1" parent="1" source="onFosMeRc9ui8_qEqtBx-26" target="onFosMeRc9ui8_qEqtBx-42">
          <mxGeometry relative="1" as="geometry">
            <mxPoint x="710" y="407" as="sourcePoint" />
            <mxPoint x="710" y="270" as="targetPoint" />
          </mxGeometry>
        </mxCell>
        <mxCell id="onFosMeRc9ui8_qEqtBx-42" value="" style="shape=waypoint;sketch=0;fillStyle=solid;size=6;pointerEvents=1;points=[];fillColor=none;resizable=0;rotatable=0;perimeter=centerPerimeter;snapToPoint=1;fontFamily=Helvetica;fontSize=11;fontColor=default;labelBackgroundColor=default;" vertex="1" parent="1">
          <mxGeometry x="720" y="355" width="20" height="20" as="geometry" />
        </mxCell>
        <mxCell id="onFosMeRc9ui8_qEqtBx-44" value="" style="shape=waypoint;sketch=0;fillStyle=solid;size=6;pointerEvents=1;points=[];fillColor=none;resizable=0;rotatable=0;perimeter=centerPerimeter;snapToPoint=1;fontFamily=Helvetica;fontSize=11;fontColor=default;labelBackgroundColor=default;" vertex="1" parent="1">
          <mxGeometry x="720" y="475" width="20" height="20" as="geometry" />
        </mxCell>
        <mxCell id="onFosMeRc9ui8_qEqtBx-45" value="&lt;font face=&quot;Times New Roman&quot; style=&quot;font-size: 20px;&quot;&gt;R&lt;sub&gt;2&lt;/sub&gt;&lt;/font&gt;" style="text;html=1;align=center;verticalAlign=middle;whiteSpace=wrap;rounded=0;fontFamily=Helvetica;fontSize=11;fontColor=default;labelBackgroundColor=default;" vertex="1" parent="1">
          <mxGeometry x="630" y="220" width="60" height="30" as="geometry" />
        </mxCell>
        <mxCell id="onFosMeRc9ui8_qEqtBx-46" value="&lt;font face=&quot;Times New Roman&quot; style=&quot;font-size: 20px;&quot;&gt;R&lt;sub&gt;2&lt;/sub&gt;&lt;/font&gt;" style="text;html=1;align=center;verticalAlign=middle;whiteSpace=wrap;rounded=0;fontFamily=Helvetica;fontSize=11;fontColor=default;labelBackgroundColor=default;" vertex="1" parent="1">
          <mxGeometry x="630" y="580" width="60" height="30" as="geometry" />
        </mxCell>
        <mxCell id="onFosMeRc9ui8_qEqtBx-47" value="&lt;font face=&quot;Times New Roman&quot; style=&quot;font-size: 20px;&quot;&gt;R&lt;sub&gt;1&lt;/sub&gt;&lt;/font&gt;" style="text;html=1;align=center;verticalAlign=middle;whiteSpace=wrap;rounded=0;fontFamily=Helvetica;fontSize=11;fontColor=default;labelBackgroundColor=default;" vertex="1" parent="1">
          <mxGeometry x="480" y="470" width="60" height="30" as="geometry" />
        </mxCell>
        <mxCell id="onFosMeRc9ui8_qEqtBx-48" value="&lt;font face=&quot;Times New Roman&quot; style=&quot;font-size: 20px;&quot;&gt;R&lt;sub&gt;1&lt;/sub&gt;&lt;/font&gt;" style="text;html=1;align=center;verticalAlign=middle;whiteSpace=wrap;rounded=0;fontFamily=Helvetica;fontSize=11;fontColor=default;labelBackgroundColor=default;" vertex="1" parent="1">
          <mxGeometry x="480" y="350" width="60" height="30" as="geometry" />
        </mxCell>
        <mxCell id="onFosMeRc9ui8_qEqtBx-49" value="&lt;font face=&quot;Times New Roman&quot; style=&quot;font-size: 20px;&quot;&gt;V&lt;sub&gt;inm&lt;/sub&gt;&lt;/font&gt;" style="text;html=1;align=center;verticalAlign=middle;whiteSpace=wrap;rounded=0;fontFamily=Helvetica;fontSize=11;fontColor=default;labelBackgroundColor=default;" vertex="1" parent="1">
          <mxGeometry x="370" y="375" width="60" height="30" as="geometry" />
        </mxCell>
        <mxCell id="onFosMeRc9ui8_qEqtBx-50" value="&lt;font face=&quot;Times New Roman&quot; style=&quot;font-size: 20px;&quot;&gt;V&lt;sub&gt;inp&lt;/sub&gt;&lt;/font&gt;" style="text;html=1;align=center;verticalAlign=middle;whiteSpace=wrap;rounded=0;fontFamily=Helvetica;fontSize=11;fontColor=default;labelBackgroundColor=default;" vertex="1" parent="1">
          <mxGeometry x="370" y="435" width="60" height="30" as="geometry" />
        </mxCell>
        <mxCell id="onFosMeRc9ui8_qEqtBx-51" value="&lt;font face=&quot;Times New Roman&quot; style=&quot;font-size: 20px;&quot;&gt;V&lt;sub&gt;op&lt;/sub&gt;&lt;/font&gt;" style="text;html=1;align=center;verticalAlign=middle;whiteSpace=wrap;rounded=0;fontFamily=Helvetica;fontSize=11;fontColor=default;labelBackgroundColor=default;" vertex="1" parent="1">
          <mxGeometry x="672" y="370" width="60" height="30" as="geometry" />
        </mxCell>
        <mxCell id="onFosMeRc9ui8_qEqtBx-52" value="&lt;font face=&quot;Times New Roman&quot; style=&quot;font-size: 20px;&quot;&gt;V&lt;sub&gt;om&lt;/sub&gt;&lt;/font&gt;" style="text;html=1;align=center;verticalAlign=middle;whiteSpace=wrap;rounded=0;fontFamily=Helvetica;fontSize=11;fontColor=default;labelBackgroundColor=default;" vertex="1" parent="1">
          <mxGeometry x="672" y="448.5" width="60" height="30" as="geometry" />
        </mxCell>
        <mxCell id="onFosMeRc9ui8_qEqtBx-53" value="&lt;font style=&quot;font-size: 20px;&quot;&gt;C&lt;sub&gt;L&lt;/sub&gt;&lt;/font&gt;" style="text;html=1;align=center;verticalAlign=middle;whiteSpace=wrap;rounded=0;fontFamily=Times New Roman;fontSize=11;fontColor=default;labelBackgroundColor=default;" vertex="1" parent="1">
          <mxGeometry x="760" y="310" width="60" height="30" as="geometry" />
        </mxCell>
        <mxCell id="onFosMeRc9ui8_qEqtBx-54" value="&lt;font face=&quot;Times New Roman&quot; style=&quot;font-size: 20px;&quot;&gt;C&lt;sub&gt;L&lt;/sub&gt;&lt;/font&gt;" style="text;html=1;align=center;verticalAlign=middle;whiteSpace=wrap;rounded=0;fontFamily=Helvetica;fontSize=11;fontColor=default;labelBackgroundColor=default;" vertex="1" parent="1">
          <mxGeometry x="770" y="500" width="60" height="30" as="geometry" />
        </mxCell>
      </root>
    </mxGraphModel>
  </diagram>
</mxfile>
